<svg width="240" height="67" viewBox="0 0 240 67" fill="none" xmlns="http://www.w3.org/2000/svg">
<path d="M1.332 40.436C1.332 37.988 1.896 35.792 3.024 33.848C4.176 31.904 5.724 30.392 7.668 29.312C9.636 28.208 11.784 27.656 14.112 27.656C16.776 27.656 19.14 28.316 21.204 29.636C23.292 30.932 24.804 32.78 25.74 35.18H20.808C20.16 33.86 19.26 32.876 18.108 32.228C16.956 31.58 15.624 31.256 14.112 31.256C12.456 31.256 10.98 31.628 9.684 32.372C8.388 33.116 7.368 34.184 6.624 35.576C5.904 36.968 5.544 38.588 5.544 40.436C5.544 42.284 5.904 43.904 6.624 45.296C7.368 46.688 8.388 47.768 9.684 48.536C10.98 49.28 12.456 49.652 14.112 49.652C15.624 49.652 16.956 49.328 18.108 48.68C19.26 48.032 20.16 47.048 20.808 45.728H25.74C24.804 48.128 23.292 49.976 21.204 51.272C19.14 52.568 16.776 53.216 14.112 53.216C11.76 53.216 9.612 52.676 7.668 51.596C5.724 50.492 4.176 48.968 3.024 47.024C1.896 45.08 1.332 42.884 1.332 40.436ZM34.6478 36.044C35.2478 35.036 36.0398 34.256 37.0238 33.704C38.0318 33.128 39.2198 32.84 40.5878 32.84V37.088H39.5438C37.9358 37.088 36.7118 37.496 35.8718 38.312C35.0558 39.128 34.6478 40.544 34.6478 42.56V53H30.5438V33.164H34.6478V36.044ZM62.2162 33.164L50.0482 62.324H45.8002L49.8322 52.676L42.0202 33.164H46.5922L52.1722 48.284L57.9682 33.164H62.2162ZM69.4173 36.08C70.1133 35.168 71.0613 34.4 72.2613 33.776C73.4613 33.152 74.8173 32.84 76.3293 32.84C78.0573 32.84 79.6293 33.272 81.0453 34.136C82.4853 34.976 83.6133 36.164 84.4293 37.7C85.2453 39.236 85.6533 41 85.6533 42.992C85.6533 44.984 85.2453 46.772 84.4293 48.356C83.6133 49.916 82.4853 51.14 81.0453 52.028C79.6293 52.892 78.0573 53.324 76.3293 53.324C74.8173 53.324 73.4733 53.024 72.2973 52.424C71.1213 51.8 70.1613 51.032 69.4173 50.12V62.432H65.3133V33.164H69.4173V36.08ZM81.4773 42.992C81.4773 41.624 81.1893 40.448 80.6133 39.464C80.0613 38.456 79.3173 37.7 78.3813 37.196C77.4693 36.668 76.4853 36.404 75.4293 36.404C74.3973 36.404 73.4133 36.668 72.4773 37.196C71.5653 37.724 70.8213 38.492 70.2453 39.5C69.6933 40.508 69.4173 41.696 69.4173 43.064C69.4173 44.432 69.6933 45.632 70.2453 46.664C70.8213 47.672 71.5653 48.44 72.4773 48.968C73.4133 49.496 74.3973 49.76 75.4293 49.76C76.4853 49.76 77.4693 49.496 78.3813 48.968C79.3173 48.416 80.0613 47.624 80.6133 46.592C81.1893 45.56 81.4773 44.36 81.4773 42.992ZM94.4997 36.512V47.492C94.4997 48.236 94.6677 48.776 95.0037 49.112C95.3637 49.424 95.9637 49.58 96.8037 49.58H99.3237V53H96.0837C94.2357 53 92.8197 52.568 91.8357 51.704C90.8517 50.84 90.3597 49.436 90.3597 47.492V36.512H88.0197V33.164H90.3597V28.232H94.4997V33.164H99.3237V36.512H94.4997ZM111.71 53.324C109.838 53.324 108.146 52.904 106.634 52.064C105.122 51.2 103.934 50 103.07 48.464C102.206 46.904 101.774 45.104 101.774 43.064C101.774 41.048 102.218 39.26 103.106 37.7C103.994 36.14 105.206 34.94 106.742 34.1C108.278 33.26 109.994 32.84 111.89 32.84C113.786 32.84 115.502 33.26 117.038 34.1C118.574 34.94 119.786 36.14 120.674 37.7C121.562 39.26 122.006 41.048 122.006 43.064C122.006 45.08 121.55 46.868 120.638 48.428C119.726 49.988 118.478 51.2 116.894 52.064C115.334 52.904 113.606 53.324 111.71 53.324ZM111.71 49.76C112.766 49.76 113.75 49.508 114.662 49.004C115.598 48.5 116.354 47.744 116.93 46.736C117.506 45.728 117.794 44.504 117.794 43.064C117.794 41.624 117.518 40.412 116.966 39.428C116.414 38.42 115.682 37.664 114.77 37.16C113.858 36.656 112.874 36.404 111.818 36.404C110.762 36.404 109.778 36.656 108.866 37.16C107.978 37.664 107.27 38.42 106.742 39.428C106.214 40.412 105.95 41.624 105.95 43.064C105.95 45.2 106.49 46.856 107.57 48.032C108.674 49.184 110.054 49.76 111.71 49.76ZM134.307 53.252C132.627 53.252 131.115 52.964 129.771 52.388C128.427 51.788 127.371 50.948 126.603 49.868C125.835 48.788 125.451 47.528 125.451 46.088H129.843C129.939 47.168 130.359 48.056 131.103 48.752C131.871 49.448 132.939 49.796 134.307 49.796C135.723 49.796 136.827 49.46 137.619 48.788C138.411 48.092 138.807 47.204 138.807 46.124C138.807 45.284 138.555 44.6 138.051 44.072C137.571 43.544 136.959 43.136 136.215 42.848C135.495 42.56 134.487 42.248 133.191 41.912C131.559 41.48 130.227 41.048 129.195 40.616C128.187 40.16 127.323 39.464 126.603 38.528C125.883 37.592 125.523 36.344 125.523 34.784C125.523 33.344 125.883 32.084 126.603 31.004C127.323 29.924 128.331 29.096 129.627 28.52C130.923 27.944 132.423 27.656 134.127 27.656C136.551 27.656 138.531 28.268 140.067 29.492C141.627 30.692 142.491 32.348 142.659 34.46H138.123C138.051 33.548 137.619 32.768 136.827 32.12C136.035 31.472 134.991 31.148 133.695 31.148C132.519 31.148 131.559 31.448 130.815 32.048C130.071 32.648 129.699 33.512 129.699 34.64C129.699 35.408 129.927 36.044 130.383 36.548C130.863 37.028 131.463 37.412 132.183 37.7C132.903 37.988 133.887 38.3 135.135 38.636C136.791 39.092 138.135 39.548 139.167 40.004C140.223 40.46 141.111 41.168 141.831 42.128C142.575 43.064 142.947 44.324 142.947 45.908C142.947 47.18 142.599 48.38 141.903 49.508C141.231 50.636 140.235 51.548 138.915 52.244C137.619 52.916 136.083 53.252 134.307 53.252ZM146.422 42.992C146.422 41 146.83 39.236 147.646 37.7C148.486 36.164 149.614 34.976 151.03 34.136C152.47 33.272 154.054 32.84 155.782 32.84C157.342 32.84 158.698 33.152 159.85 33.776C161.026 34.376 161.962 35.132 162.658 36.044V33.164H166.798V53H162.658V50.048C161.962 50.984 161.014 51.764 159.814 52.388C158.614 53.012 157.246 53.324 155.71 53.324C154.006 53.324 152.446 52.892 151.03 52.028C149.614 51.14 148.486 49.916 147.646 48.356C146.83 46.772 146.422 44.984 146.422 42.992ZM162.658 43.064C162.658 41.696 162.37 40.508 161.794 39.5C161.242 38.492 160.51 37.724 159.598 37.196C158.686 36.668 157.702 36.404 156.646 36.404C155.59 36.404 154.606 36.668 153.694 37.196C152.782 37.7 152.038 38.456 151.462 39.464C150.91 40.448 150.634 41.624 150.634 42.992C150.634 44.36 150.91 45.56 151.462 46.592C152.038 47.624 152.782 48.416 153.694 48.968C154.63 49.496 155.614 49.76 156.646 49.76C157.702 49.76 158.686 49.496 159.598 48.968C160.51 48.44 161.242 47.672 161.794 46.664C162.37 45.632 162.658 44.432 162.658 43.064ZM179.856 49.328L185.472 33.164H189.828L182.268 53H177.372L169.848 33.164H174.24L179.856 49.328ZM211.11 42.596C211.11 43.34 211.062 44.012 210.966 44.612H195.81C195.93 46.196 196.518 47.468 197.574 48.428C198.63 49.388 199.926 49.868 201.462 49.868C203.67 49.868 205.23 48.944 206.142 47.096H210.57C209.97 48.92 208.878 50.42 207.294 51.596C205.734 52.748 203.79 53.324 201.462 53.324C199.566 53.324 197.862 52.904 196.35 52.064C194.862 51.2 193.686 50 192.822 48.464C191.982 46.904 191.562 45.104 191.562 43.064C191.562 41.024 191.97 39.236 192.786 37.7C193.626 36.14 194.79 34.94 196.278 34.1C197.79 33.26 199.518 32.84 201.462 32.84C203.334 32.84 205.002 33.248 206.466 34.064C207.93 34.88 209.07 36.032 209.886 37.52C210.702 38.984 211.11 40.676 211.11 42.596ZM206.826 41.3C206.802 39.788 206.262 38.576 205.206 37.664C204.15 36.752 202.842 36.296 201.282 36.296C199.866 36.296 198.654 36.752 197.646 37.664C196.638 38.552 196.038 39.764 195.846 41.3H206.826Z" fill="black"/>
<g clip-path="url(#clip0_1_15)">
<path d="M206.178 16.7033C204.773 20.5821 204.087 25.3346 204.498 31.1353L204.567 31.0654C209.707 5.73084 231.57 4.71746 232.495 4.68251C212.963 3.84385 206.349 16.3888 206.178 16.7033Z" fill="url(#paint0_linear_1_15)"/>
<path d="M204.567 31.1004C212.449 9.81933 232.495 4.71747 232.495 4.71747C231.57 4.75241 209.673 5.73085 204.567 31.1004Z" fill="url(#paint1_linear_1_15)"/>
<path d="M203.093 29.0386L203.059 29.0037C186.474 22.574 188.221 7.05872 188.29 6.39478L188.393 6.32489C201.826 8.98065 204.293 18.6602 204.361 18.8699V18.8349C204.327 18.6602 204.327 18.4855 204.293 18.3108C204.259 18.2059 204.259 18.0662 204.224 17.9613C204.19 17.8215 204.19 17.6818 204.156 17.542L204.121 17.2974C204.087 17.2275 204.087 17.1227 204.053 17.0528C204.019 16.9829 204.019 16.878 203.984 16.8082C203.95 16.7383 203.95 16.6334 203.916 16.5636C203.882 16.4937 203.882 16.4238 203.847 16.3539C203.847 16.3189 203.813 16.2491 203.813 16.2141C203.779 16.1442 203.779 16.0743 203.745 15.9695C203.676 15.7598 203.607 15.5851 203.573 15.4104C203.539 15.3405 203.505 15.2706 203.505 15.1658C203.47 15.0959 203.436 15.026 203.436 14.9561C203.368 14.8163 203.333 14.6766 203.265 14.5018C203.231 14.432 203.196 14.3621 203.162 14.2922C203.162 14.2572 203.128 14.2223 203.128 14.1873C203.128 14.1524 203.093 14.1175 203.093 14.0825C203.025 13.9078 202.956 13.768 202.888 13.6282C202.854 13.5583 202.819 13.4885 202.785 13.4186C202.751 13.3487 202.717 13.2438 202.648 13.174C202.545 12.9992 202.477 12.8595 202.374 12.6847C202.34 12.6149 202.271 12.545 202.237 12.4401C202.202 12.4052 202.202 12.3702 202.168 12.3353C202.168 12.3353 202.168 12.3353 202.168 12.3004C201.997 12.0208 201.826 11.7762 201.654 11.5316C201.586 11.4267 201.483 11.287 201.414 11.1821C201.346 11.1123 201.277 11.0074 201.209 10.9375C201.174 10.9026 201.174 10.8676 201.14 10.8327C201.072 10.7279 200.969 10.623 200.9 10.5182C200.832 10.4134 200.729 10.3085 200.66 10.2037C200.66 10.2037 200.66 10.2037 200.626 10.1688C200.523 10.0639 200.455 9.95909 200.352 9.85426C200.283 9.78437 200.215 9.67954 200.146 9.60965C200.112 9.5747 200.078 9.53976 200.044 9.50482C199.975 9.43493 199.907 9.36504 199.838 9.29515C199.838 9.26021 199.804 9.26021 199.804 9.26021C199.701 9.15537 199.632 9.08549 199.53 8.98065C199.461 8.91076 199.393 8.84088 199.29 8.77099C199.255 8.73604 199.187 8.66615 199.153 8.63121C199.084 8.56132 198.981 8.49143 198.913 8.42155C198.844 8.35166 198.741 8.28177 198.639 8.17694C198.536 8.10705 198.467 8.03716 198.364 7.93233C198.33 7.89738 198.296 7.86244 198.262 7.82749C198.193 7.7576 198.125 7.72266 198.056 7.65277C197.713 7.37322 197.336 7.09366 196.96 6.84905C196.891 6.81411 196.822 6.74422 196.754 6.70928C196.171 6.32489 195.589 5.9405 195.006 5.62601C194.938 5.59106 194.869 5.55612 194.801 5.52117C194.561 5.3814 194.321 5.24162 194.081 5.13679C193.978 5.10184 193.875 5.03195 193.807 4.99701C193.533 4.85723 193.224 4.71746 192.95 4.57768C192.847 4.54273 192.779 4.50779 192.676 4.47285C192.607 4.4379 192.539 4.40296 192.47 4.36801C192.402 4.33307 192.299 4.29812 192.231 4.26318C192.093 4.19329 191.956 4.15835 191.819 4.08846C191.717 4.05352 191.614 4.01857 191.511 3.94868C191.408 3.91374 191.305 3.87879 191.202 3.80891C191.1 3.77396 190.997 3.73902 190.894 3.70407C190.791 3.66913 190.688 3.63418 190.586 3.59924C190.483 3.5643 190.38 3.52935 190.277 3.49441H190.243C189.969 3.38957 189.695 3.31969 189.421 3.21485C189.318 3.17991 189.249 3.14497 189.146 3.14497C188.941 3.07508 188.769 3.04013 188.598 2.97024C188.53 3.00519 188.427 2.97024 188.358 2.9353C188.05 2.86541 187.741 2.76058 187.467 2.69069C187.433 2.69069 187.399 2.65575 187.33 2.65575C187.227 2.65575 187.159 2.6208 187.056 2.6208C186.988 2.6208 186.919 2.58586 186.885 2.58586C186.713 2.51597 186.542 2.48102 186.405 2.44608C186.336 2.44608 186.302 2.44608 186.268 2.44608C185.994 2.37619 185.822 2.34125 185.72 2.34125C185.685 2.44608 185.651 2.69069 185.583 3.00519C185.583 3.04013 185.548 3.11002 185.548 3.14497C185.48 3.5643 185.377 4.1234 185.274 4.78734C185.24 4.96207 185.24 5.13679 185.206 5.31151C185.206 5.41634 185.171 5.48623 185.171 5.59106C185.137 5.76578 185.137 5.97545 185.103 6.15017C185.069 6.95389 185 7.82749 185 8.77099C185 8.87582 185 9.0156 185 9.12043C185 9.36504 185 9.60965 185 9.85426C185 9.99404 185 10.0989 185 10.2386C185.034 10.7978 185.069 11.3918 185.103 12.0208C185.103 12.1256 185.103 12.1955 185.137 12.3004C185.171 12.6149 185.206 12.9294 185.24 13.2089C185.24 13.2788 185.274 13.3836 185.274 13.4535C185.343 13.9427 185.445 14.432 185.548 14.9212C185.617 15.2007 185.685 15.4453 185.754 15.7249C185.822 15.9695 185.891 16.2141 185.96 16.4937C186.028 16.7383 186.131 16.9829 186.199 17.2275C186.234 17.2974 186.234 17.3673 186.268 17.4372C186.782 18.9398 187.502 20.4074 188.495 21.7702C188.598 21.91 188.701 22.0498 188.804 22.1546C188.907 22.2944 189.009 22.4342 189.112 22.539C189.181 22.6089 189.215 22.6788 189.283 22.7137C189.386 22.8535 189.489 22.9583 189.626 23.0981C189.695 23.168 189.729 23.2379 189.798 23.2728C189.832 23.3427 189.9 23.3777 189.969 23.4476L190.449 23.9368C190.517 24.0067 190.551 24.0416 190.62 24.1115C190.688 24.1465 190.723 24.2163 190.791 24.2513C190.86 24.3212 190.894 24.3561 190.963 24.3911C191.134 24.5308 191.305 24.7056 191.511 24.8453C191.682 24.9851 191.888 25.1249 192.093 25.2996C192.162 25.3695 192.231 25.4044 192.299 25.4743C192.368 25.5093 192.402 25.5442 192.47 25.5792C192.539 25.6141 192.607 25.684 192.676 25.7189C192.745 25.7539 192.813 25.8238 192.882 25.8587C193.019 25.9636 193.156 26.0334 193.293 26.1383C193.361 26.1732 193.43 26.2082 193.498 26.278C195.966 27.7108 199.084 28.6892 203.093 29.0386Z" fill="url(#paint2_linear_1_15)"/>
<path d="M232.495 4.71747L232.598 4.8223C231.981 23.3777 220.879 29.6677 219.062 30.5762C219.028 30.5762 219.028 30.5762 218.994 30.5762H218.959H219.028C218.925 30.6461 218.857 30.6461 218.822 30.681C218.857 30.681 218.857 30.681 218.857 30.681C218.96 30.6461 219.028 30.6112 219.131 30.6112C220.502 30.6112 229.411 31.0305 235.442 42.4922L235.408 42.597C234.86 42.8416 222.763 48.2929 212.312 37.6699C223.38 53.9539 239.726 44.0996 240 43.9249C239.966 43.855 239.863 43.6803 239.76 43.4357C239.726 43.4007 239.726 43.3658 239.692 43.2959C239.623 43.1561 239.555 43.0164 239.452 42.8416C239.417 42.7717 239.383 42.7368 239.349 42.6669C239.315 42.597 239.246 42.4922 239.212 42.4223C239.178 42.3874 239.178 42.3524 239.143 42.3175C239.006 42.0729 238.835 41.7933 238.629 41.5138C238.595 41.4439 238.561 41.374 238.492 41.339C238.389 41.1643 238.287 41.0245 238.184 40.8498C238.115 40.7799 238.081 40.6751 238.012 40.6052C237.841 40.3606 237.704 40.1509 237.533 39.9063L237.498 39.8714C237.43 39.8015 237.361 39.6967 237.327 39.6268C237.259 39.5219 237.19 39.452 237.121 39.3472C237.053 39.2424 236.984 39.1725 236.916 39.0677C236.847 38.9628 236.779 38.8929 236.71 38.7881C236.642 38.6833 236.573 38.6134 236.505 38.5085C236.402 38.4037 236.333 38.2989 236.231 38.1591C236.162 38.0892 236.128 38.0193 236.059 37.9494C236.025 37.8796 235.956 37.8446 235.922 37.7747C235.854 37.7048 235.785 37.6349 235.717 37.5651C235.511 37.3204 235.305 37.0758 235.065 36.8312C234.997 36.7613 234.928 36.6914 234.86 36.5866C234.688 36.377 234.483 36.2022 234.277 35.9926C234.209 35.9227 234.174 35.8877 234.106 35.8178C233.626 35.3286 233.112 34.8743 232.564 34.4201C232.495 34.3851 232.427 34.3152 232.358 34.2803C232.016 34.0007 231.639 33.7212 231.262 33.4766C231.193 33.4416 231.125 33.3717 231.056 33.3368C231.022 33.3019 230.988 33.2669 230.953 33.2669C230.85 33.197 230.748 33.1271 230.645 33.0922C230.542 33.0223 230.439 32.9524 230.336 32.9175C230.234 32.8476 230.165 32.8126 230.062 32.7427C229.994 32.7078 229.959 32.6729 229.891 32.6379C229.788 32.568 229.72 32.5331 229.617 32.4632C229.514 32.3933 229.411 32.3584 229.274 32.2885C229.24 32.2885 229.24 32.2535 229.206 32.2535C229.103 32.2186 229.034 32.1487 228.931 32.1138C228.897 32.0788 228.863 32.0788 228.794 32.0439C228.692 32.0089 228.589 31.939 228.52 31.9041C228.383 31.8342 228.28 31.7993 228.143 31.7294H228.109C228.006 31.6944 227.869 31.6245 227.766 31.5896C227.664 31.5546 227.526 31.4848 227.424 31.4498C227.389 31.4498 227.355 31.4149 227.321 31.4149C227.218 31.3799 227.115 31.345 227.012 31.31C226.875 31.2751 226.738 31.2052 226.636 31.1703C226.361 31.0654 226.053 30.9955 225.779 30.9257H225.745C225.71 30.9257 225.642 30.8907 225.607 30.8907C225.505 30.8558 225.436 30.8558 225.368 30.8208C225.196 30.7859 225.025 30.7509 224.854 30.716C224.751 30.716 224.682 30.681 224.579 30.6461C224.511 30.6461 224.442 30.6112 224.374 30.6112C224.202 30.5762 224.031 30.5413 223.86 30.5413C223.826 30.5413 223.791 30.5413 223.757 30.5413C223.723 30.5413 223.688 30.5413 223.654 30.5413C223.586 30.5413 223.517 30.5413 223.414 30.5063C223.243 30.5063 223.106 30.4714 222.935 30.4714C222.866 30.4714 222.763 30.4714 222.695 30.4714C222.626 30.4714 222.523 30.4714 222.455 30.4714C222.249 30.4714 222.078 30.4714 221.872 30.4714C221.804 30.4714 221.701 30.4714 221.632 30.4714C221.598 30.4714 221.53 30.4714 221.495 30.4714C221.427 30.4714 221.324 30.4714 221.255 30.4714C221.187 30.4714 221.084 30.4714 221.016 30.4714C220.913 30.4714 220.844 30.4714 220.776 30.4714C220.707 30.4714 220.604 30.4714 220.536 30.5063L220.296 30.4015C220.159 30.4015 220.022 30.4364 219.885 30.4364C219.782 30.4714 219.645 30.4714 219.542 30.4714C219.474 30.4714 219.439 30.4714 219.371 30.5063C219.439 30.4714 219.542 30.4714 219.611 30.4364C219.782 30.4015 219.919 30.3316 220.09 30.2617C220.262 30.1918 220.467 30.1219 220.639 30.052L220.981 29.9123C221.084 29.8773 221.187 29.8074 221.324 29.7725C221.427 29.7375 221.53 29.6677 221.667 29.6327C221.769 29.5978 221.872 29.5279 222.009 29.4929C222.112 29.458 222.215 29.3881 222.318 29.3532C222.386 29.3182 222.421 29.2833 222.489 29.2833C222.592 29.2483 222.695 29.1784 222.798 29.1435C223.037 29.0037 223.312 28.8989 223.551 28.7591C223.654 28.6892 223.757 28.6543 223.86 28.5844C223.963 28.5145 224.065 28.4796 224.134 28.4097C224.34 28.3048 224.511 28.1651 224.717 28.0602C224.819 27.9903 224.888 27.9554 224.991 27.8855C225.025 27.8506 225.093 27.8156 225.128 27.7807C225.162 27.7457 225.231 27.7108 225.265 27.6758C225.47 27.5361 225.676 27.3963 225.847 27.2565C225.95 27.1866 226.019 27.1167 226.087 27.0818C226.19 27.0119 226.293 26.9071 226.396 26.8372C226.601 26.6625 226.807 26.5227 226.978 26.348C227.081 26.2781 227.184 26.1732 227.252 26.1033C227.321 26.0684 227.355 25.9985 227.389 25.9636L227.424 25.9286C227.766 25.6491 228.075 25.3346 228.383 25.0201C228.52 24.8803 228.657 24.7405 228.794 24.6007C228.897 24.4959 229 24.3911 229.103 24.2513C229.137 24.2164 229.171 24.1814 229.206 24.1465C229.343 24.0067 229.445 23.8669 229.583 23.7271C229.72 23.5874 229.822 23.4476 229.959 23.3078L229.994 23.2729C230.131 23.1331 230.234 22.9584 230.371 22.8186C230.474 22.6788 230.542 22.574 230.645 22.4342C230.679 22.3643 230.748 22.3294 230.782 22.2595C230.885 22.1546 230.953 22.0498 231.022 21.91C231.056 21.8751 231.056 21.8401 231.09 21.8052C231.193 21.6654 231.296 21.5256 231.399 21.3509C231.399 21.3509 231.399 21.3509 231.399 21.316C231.502 21.1762 231.57 21.0714 231.639 20.9316C231.707 20.8617 231.741 20.7569 231.81 20.687C231.913 20.5472 231.981 20.4074 232.05 20.2677C232.153 20.1279 232.221 19.9881 232.324 19.8483C232.393 19.7085 232.495 19.5688 232.564 19.429C232.598 19.3591 232.632 19.3242 232.667 19.2543C232.735 19.1494 232.804 19.0446 232.838 18.9398C233.146 18.3807 233.455 17.7866 233.729 17.1926C233.798 17.0877 233.832 16.9829 233.866 16.8781C234.277 15.9346 234.654 15.026 234.997 14.0825C235.031 13.9777 235.065 13.8729 235.134 13.7331C235.271 13.3487 235.374 12.9643 235.511 12.6149C235.545 12.4751 235.614 12.3353 235.648 12.1606C235.785 11.7063 235.922 11.287 236.025 10.8327C236.059 10.6929 236.093 10.5532 236.128 10.4134C236.162 10.3085 236.196 10.2037 236.196 10.0989C236.231 9.95911 236.265 9.85427 236.299 9.7145C236.333 9.50483 236.402 9.29517 236.436 9.12044C236.47 8.94572 236.505 8.80595 236.539 8.63123C236.573 8.4565 236.607 8.31673 236.642 8.14201C236.676 7.96728 236.71 7.82751 236.745 7.68773C236.779 7.51301 236.813 7.37323 236.847 7.23346C236.882 7.09368 236.916 6.91896 236.916 6.77918C236.916 6.74424 236.916 6.74424 236.916 6.70929C236.984 6.28996 237.053 5.87063 237.121 5.48624C237.156 5.34647 237.156 5.20669 237.19 5.06691C237.224 4.78736 237.259 4.50781 237.293 4.22825C237.293 4.12342 237.327 4.01859 237.327 3.91375C237.396 3.42453 237.43 2.97026 237.464 2.55093C237.464 2.48104 237.464 2.4461 237.464 2.37621C237.464 2.23643 237.498 2.09665 237.498 1.95688C237.498 1.85204 237.498 1.78215 237.498 1.67732C237.498 1.43271 237.533 1.1881 237.533 0.978437C237.533 0.908549 237.533 0.83866 237.533 0.768772C237.533 0.384385 237.533 0.104831 237.567 -0.0349458C237.396 -0.0349458 237.087 -0.0698901 236.607 -0.104834C236.539 -0.104834 236.47 -0.104834 236.402 -0.104834C235.785 -0.139779 234.997 -0.139779 234.072 -0.104834C233.832 -0.104834 233.592 -0.104834 233.352 -0.0698901C233.215 -0.0698901 233.112 -0.0698901 232.975 -0.0349458C232.701 -0.0349458 232.461 -1.58325e-06 232.153 -1.58325e-06C231.056 0.0698869 229.822 0.209664 228.52 0.384385C228.349 0.419329 228.178 0.419329 228.04 0.454274C227.698 0.524162 227.389 0.559106 227.047 0.628995C226.875 0.663939 226.704 0.698883 226.533 0.733827C225.745 0.908549 224.922 1.08327 224.1 1.29294C223.963 1.32788 223.86 1.36282 223.723 1.39777C223.312 1.5026 222.9 1.64238 222.455 1.78215C222.352 1.8171 222.215 1.85204 222.112 1.88699C221.461 2.09665 220.776 2.34126 220.125 2.62082C219.782 2.76059 219.405 2.93531 219.062 3.07509C218.72 3.21487 218.377 3.38959 218.069 3.56431C217.726 3.73903 217.417 3.91375 217.075 4.08847C216.972 4.12342 216.903 4.19331 216.801 4.22825C214.847 5.31152 212.963 6.70929 211.318 8.42156C211.146 8.59628 211.009 8.771 210.838 8.94572C210.667 9.12044 210.53 9.29517 210.358 9.46989C210.29 9.57472 210.187 9.64461 210.118 9.74944C209.981 9.92416 209.81 10.1338 209.673 10.3085C209.604 10.4134 209.536 10.4833 209.467 10.5881C209.399 10.658 209.33 10.7628 209.262 10.8327C209.056 11.1123 208.885 11.3569 208.713 11.6364C208.645 11.7413 208.576 11.8112 208.542 11.916C208.474 12.0208 208.405 12.0907 208.371 12.1955C208.302 12.3004 208.234 12.3703 208.199 12.4751C208.028 12.7546 207.857 13.0691 207.685 13.3487C207.514 13.6632 207.377 13.9427 207.206 14.2572C207.137 14.3621 207.103 14.5019 207.034 14.6067C207 14.7115 206.966 14.7814 206.897 14.8862C206.863 14.9911 206.794 15.0959 206.76 15.2007C206.726 15.3056 206.657 15.4104 206.623 15.5152C206.52 15.7249 206.452 15.9695 206.349 16.1792C206.315 16.284 206.28 16.3888 206.212 16.5286C206.349 16.3888 212.963 3.84386 232.495 4.71747Z" fill="url(#paint3_linear_1_15)"/>
</g>
<defs>
<linearGradient id="paint0_linear_1_15" x1="194.566" y1="33.1341" x2="226.719" y2="4.93539" gradientUnits="userSpaceOnUse">
<stop stop-color="#3E38C9"/>
<stop offset="0.4916" stop-color="#00989F"/>
<stop offset="1" stop-color="#D6F1A0"/>
</linearGradient>
<linearGradient id="paint1_linear_1_15" x1="201.463" y1="28.8619" x2="234.406" y2="0.911579" gradientUnits="userSpaceOnUse">
<stop stop-color="#D6F1A0"/>
<stop offset="0.5084" stop-color="#00989F"/>
<stop offset="1" stop-color="#3E38C9"/>
</linearGradient>
<linearGradient id="paint2_linear_1_15" x1="205.227" y1="28.8074" x2="184.242" y2="4.61735" gradientUnits="userSpaceOnUse">
<stop stop-color="#3E38C9"/>
<stop offset="0.4916" stop-color="#00989F"/>
<stop offset="1" stop-color="#D6F1A0"/>
</linearGradient>
<linearGradient id="paint3_linear_1_15" x1="243.326" y1="41.007" x2="213.426" y2="6.54249" gradientUnits="userSpaceOnUse">
<stop stop-color="#00989F"/>
<stop offset="1" stop-color="#D6F1A0"/>
</linearGradient>
<clipPath id="clip0_1_15">
<rect width="55" height="47" fill="white" transform="translate(185)"/>
</clipPath>
</defs>
</svg>
